<?xml version="1.0" encoding="utf-8"?>
<!-- Generator: Adobe Illustrator 21.0.2, SVG Export Plug-In . SVG Version: 6.00 Build 0)  -->
<svg version="1.1" id="Layer_1" xmlns="http://www.w3.org/2000/svg" xmlns:xlink="http://www.w3.org/1999/xlink" x="0px" y="0px"
	 viewBox="0 0 167.1 33.2" style="enable-background:new 0 0 167.1 33.2;" xml:space="preserve">
<style type="text/css">
	.st0{fill:#606060;}
</style>
<g>
	<path class="st0" d="M164.3,12.1c0-0.6,0.5-0.9,1.4-0.9h1.3v-1h-6.7v1h0.9c0.8,0,2.1,0.3,2.1,0.9v10.8l-9-12.6H146v1h1.1
		c1.9,0,1.6,0.4,1.6,2V29c0,0.9-0.1,1.6-1.1,1.7H146v1h7v-1h-1.8c-0.8-0.1-1.2-0.4-1.2-1.2V13.1l13.7,19h0.7V12.1z M137.3,4.2
		c0.6-0.4,1.3-0.8,1.3-1.7c0-0.8-0.6-1.4-1.4-1.4c-1.4,0-2.3,1.4-3.1,2.4L131,7h1.9L137.3,4.2z M122.8,11.2h2.5v13.9
		c0,5.2,2.8,7,8.1,7c3.6,0,5.5-0.7,6.7-2c1.1-1.2,1.2-2.9,1.2-4.5V12.4c0-0.6,0.3-1.2,1-1.2h1.9v-1h-6.7v1h1.4
		c0.9,0,1.4,0.5,1.4,1.2v10.7c0,2.6,0,5.1-0.7,5.9c-0.7,0.9-2.1,2.1-4.6,2.1c-3.6,0-4.3-1.5-4.3-4.4V11.2h2.7v-1h-10.6V11.2z
		 M118.6,11.2h2.6v-1h-8.7l-3.9,12.9L105,10.3h-9v1h2.8v17.5c0,2.1-1.1,1.9-2.8,1.9v1h6.8v-1c-1.9,0-3,0.2-3-1.9V11.3h0.1l6.1,20.3
		h1.1l6.2-20.2h0.1v19.2h-2.8v1h10.6v-1h-2.6V11.2z M83,9.8C78.8,9.8,72,13.5,72,20.7C72,27,76.7,32.1,83,32.1
		c6.3,0,10.9-5.1,10.9-11.4C93.9,13.5,87.1,9.8,83,9.8 M78.4,17.8c0-5.8,1.1-7.1,4.6-7.1c3.5,0,4.6,1.3,4.6,7.1v5.4
		c0,6.6-0.3,7.9-4.6,7.9c-4.4,0-4.6-1.3-4.6-7.9V17.8z M66.2,11.5c-1.5-1.2-3.3-1.7-5.2-1.7c-5.8,0-10.1,7-10.1,10.9
		c0,6.4,4.8,11.3,10.4,11.3c1.8,0,3.5-0.7,5.1-1.7l1.2,1.2h1.1v-6.3h-1.1c-1,3.3-2.8,5.8-6.5,5.8c-4.1,0-4.1-2.3-4.1-10.4
		c0-9,1-10,4-10c3.5,0,5.1,2.5,6.3,5.5h0.9v-5.9h-1.1L66.2,11.5z M38.4,31.6l0.3-7h-0.9c-1,3-2.3,6-5.9,6h-3.6V11.2h2.9v-1H20.8v1
		H23v19.4h-2.2v1H38.4z M18.5,31.6l0.2-7h-1c-0.9,3.7-1.8,6-6.7,6H7.9v-9.4c3.1,0,4,1,4.4,4.1h1.1v-9.1h-1.1
		c-0.6,2.9-1.3,3.9-4.4,3.9v-8.9h3c3.2,0,4.6,1.2,5.9,4.8h1.1l-0.2-5.7H0.3v1h2.3v19.4H0v1H18.5z"/>
</g>
</svg>
