<?xml version="1.0" encoding="utf-8"?>
<!-- Generator: Adobe Illustrator 18.1.1, SVG Export Plug-In . SVG Version: 6.00 Build 0)  -->
<!DOCTYPE svg PUBLIC "-//W3C//DTD SVG 1.1//EN" "http://www.w3.org/Graphics/SVG/1.1/DTD/svg11.dtd">
<svg version="1.1" id="Layer_1" xmlns="http://www.w3.org/2000/svg" xmlns:xlink="http://www.w3.org/1999/xlink" x="0px" y="0px"
	 viewBox="-76.3 0 920.7 768" enable-background="new -76.3 0 920.7 768" xml:space="preserve">
<path fill="#FFFFFF" d="M230.6,0h306.9l76.7,115.1h115.1c31.5,0,59.1,11.5,81.3,34.5s33.8,49.9,33.8,82.1v421.2
	c0,31.5-11.5,59.1-33.8,81.3S760.7,768,729.3,768H38.7c-31.5,0-59.1-11.5-81.3-33.8s-33.8-49.9-33.8-81.3V231.7
	c0-31.5,11.5-59.1,33.8-81.3s49.9-33.8,81.3-33.8h115.1L230.6,0z M384,230.2c26.1,0,50.6,5.4,74.4,15.3c23.8,10,43.7,23.8,61.4,40.7
	c17.6,16.9,30.7,37.6,40.7,61.4c10,23.8,15.3,48.3,15.3,74.4s-5.4,50.6-15.3,74.4c-10,23.8-23.8,43.7-40.7,61.4
	c-16.9,17.6-37.6,30.7-61.4,40.7c-23.8,10-48.3,15.3-74.4,15.3s-50.6-5.4-74.4-15.3c-23.8-10-43.7-23.8-61.4-40.7
	c-17.6-16.9-30.7-37.6-40.7-61.4c-10-23.8-15.3-48.3-15.3-74.4s5.4-50.6,15.3-74.4c10-23.8,23.8-43.7,40.7-61.4
	c16.9-17.6,37.6-30.7,61.4-40.7C333.4,235.5,357.9,230.2,384,230.2z M384,306.9c-31.5,0-59.1,11.5-81.3,33.8s-33.8,49.9-33.8,81.3
	s11.5,59.1,33.8,81.3s49.9,33.8,81.3,33.8s59.1-11.5,81.3-33.8s33.8-49.9,33.8-81.3s-11.5-59.1-33.8-81.3S415.5,306.9,384,306.9z
	 M572.7,191.8L497.6,76.7H271.2l-76.7,115.1H38.7c-10.7,0-19.9,3.8-26.9,11.5C5,211,0.4,220.2,0.4,230.9v421.2
	c0,10.7,3.8,19.9,11.5,26.9s16.9,11.5,26.9,11.5h690.5c10.7,0,19.9-3.8,27.6-10.7c7.7-6.9,10.7-16.1,10.7-26.9V231.7
	c0-10.7-3.8-19.9-11.5-27.6c-7.7-7.7-16.9-11.5-26.9-11.5H572.7V191.8z"/>
</svg>
