<?xml version="1.0" encoding="utf-8"?>
<!-- Generator: Adobe Illustrator 18.1.1, SVG Export Plug-In . SVG Version: 6.00 Build 0)  -->
<!DOCTYPE svg PUBLIC "-//W3C//DTD SVG 1.1//EN" "http://www.w3.org/Graphics/SVG/1.1/DTD/svg11.dtd">
<svg version="1.1" id="Layer_1" xmlns="http://www.w3.org/2000/svg" xmlns:xlink="http://www.w3.org/1999/xlink" x="0px" y="0px"
	 viewBox="0 0 768 768" enable-background="new 0 0 768 768" xml:space="preserve">
<path fill="#FFFFFF" d="M384,692c84.5,0,156.7-30.7,217.3-91.4c60.7-60.7,91.4-132.9,91.4-217.3S662,226.6,601.3,165.9
	C540.7,105.2,468.5,74.5,384,74.5s-156.7,30.7-217.3,91.4S75.3,298.8,75.3,383.2s30.7,156.7,91.4,217.3C227.3,662,299.5,692,384,692
	z M384,0c106,0,195.8,37.6,271.1,112.9C730.4,188.2,768,278.8,768,384s-37.6,195.8-112.9,271.1S489.2,768,384,768
	s-195.8-37.6-271.1-112.9S0,489.2,0,384s37.6-195.8,112.9-271.1S278,0,384,0z M306.4,556.8V210.4l230.4,172.8L306.4,556.8z"/>
</svg>
