<?xml version="1.0" encoding="utf-8"?>
<!-- Generator: Adobe Illustrator 16.0.4, SVG Export Plug-In . SVG Version: 6.00 Build 0)  -->
<!DOCTYPE svg PUBLIC "-//W3C//DTD SVG 1.1//EN" "http://www.w3.org/Graphics/SVG/1.1/DTD/svg11.dtd">
<svg version="1.1" id="Layer_1" xmlns="http://www.w3.org/2000/svg" xmlns:xlink="http://www.w3.org/1999/xlink" x="0px" y="0px"
	 width="210px" height="49px" viewBox="0 0 210 49" enable-background="new 0 0 210 49" xml:space="preserve">
<g>
	<path fill="#3D833E" d="M48.113,13.161h13.232v33.749H48.113V13.161z"/>
	<path fill="#3D833E" d="M77.906,18.126h-0.04c0.119-2.738,5.924-6.28,11.555-5.713c9.925,0.994,11.137,5.832,11.137,12.721v21.765
		H85.741v-20.86c0-1.833-0.802-4.42-3.465-4.42c-2.605,0-3.405,2.588-3.805,4.42v20.86H63.653V13.12h14.056L77.906,18.126z"/>
	<path fill="#3D833E" d="M169.193,23.956c-2.811-0.943-4.025-0.507-5.566,0c-3.394,1.116-4.56,4.184-4.56,8.062v14.758h-14.684
		V13.125h13.093v3.846h0.25c2.463-4.113,5.448-4.998,11.468-4.876V23.956z"/>
	<path fill="#3D833E" d="M0,0.014h16.932c15.349,0,28.315,6.879,28.315,23.702c0,13.607-10.784,23.311-24.192,23.311H0V0.014z
		 M16.226,36.07h1.431c8.599,1.354,11.543-6.312,11.543-12.325c0-6.442-2.807-12.002-8.22-12.802l-4.754-0.174V36.07z"/>
	<path fill="#3D833E" d="M189.591,39.877c2.376,0,4.269-0.569,4.509-9.552c0.201-7.211-2.327-9.291-4.706-9.291
		c-2.377,0-4.908,1.494-4.708,9.683C184.894,39.52,187.214,39.877,189.591,39.877 M210,30.717c0,11.242-9.981,17.315-20.606,17.315
		c-10.623,0-20.608-6.073-20.608-17.315c0-11.884,9.411-18.146,20.608-18.146C200.595,12.571,210,18.833,210,30.717"/>
	<path fill="#3D833E" d="M126.251,24.475c-0.571-2.203-2.488-5.46-6.492-4.148c-3.953,1.291-2.883,4.376-2.296,6.64L126.251,24.475z
		 M119.421,33.563c0.658,2.461,2.223,5.538,5.615,5.044c5.317-0.777,5.021-4.212,4.926-5.819l13.019-2.496
		c-0.057,8.366-7.91,14.207-15.419,16.111c-10.276,2.607-21.06-0.269-23.975-11.47c-2.804-10.773,3.808-19.63,14.208-22.266
		c11.63-2.955,22.743,2.191,25.137,14.747L119.421,33.563z"/>
	<path fill="#3D833E" d="M54.729,0c3.221,0,5.829,2.606,5.829,5.825s-2.607,5.825-5.829,5.825c-3.219,0-5.832-2.605-5.832-5.825
		S51.51,0,54.729,0"/>
</g>
</svg>
