<?xml version="1.0" encoding="utf-8"?>
<!-- Generator: Adobe Illustrator 16.0.4, SVG Export Plug-In . SVG Version: 6.00 Build 0)  -->
<!DOCTYPE svg PUBLIC "-//W3C//DTD SVG 1.1//EN" "http://www.w3.org/Graphics/SVG/1.1/DTD/svg11.dtd">
<svg version="1.1" id="Layer_1" xmlns="http://www.w3.org/2000/svg" xmlns:xlink="http://www.w3.org/1999/xlink" x="0px" y="0px"
	 width="210px" height="49px" viewBox="0 0 210 49" enable-background="new 0 0 210 49" xml:space="preserve">
<g>
	<path fill="#FFFFFF" d="M48.113,13.161h13.232V46.91H48.113V13.161z"/>
	<path fill="#FFFFFF" d="M77.906,18.126h-0.04c0.119-2.738,5.924-6.28,11.555-5.713c9.925,0.994,11.137,5.832,11.137,12.721v21.765
		H85.741V26.039c0-1.833-0.802-4.42-3.465-4.42c-2.605,0-3.405,2.588-3.805,4.42v20.859H63.653V13.12h14.056L77.906,18.126z"/>
	<path fill="#FFFFFF" d="M169.193,23.956c-2.812-0.943-4.025-0.507-5.566,0c-3.395,1.116-4.561,4.185-4.561,8.062v14.758h-14.684
		v-33.65h13.094v3.846h0.25c2.463-4.113,5.447-4.998,11.467-4.876V23.956L169.193,23.956z"/>
	<path fill="#FFFFFF" d="M0,0.014h16.932c15.349,0,28.315,6.879,28.315,23.702c0,13.607-10.784,23.312-24.192,23.312H0V0.014z
		 M16.226,36.07h1.431C26.256,37.424,29.2,29.758,29.2,23.745c0-6.442-2.807-12.002-8.22-12.802l-4.754-0.174V36.07z"/>
	<path fill="#FFFFFF" d="M189.591,39.877c2.376,0,4.269-0.568,4.509-9.552c0.201-7.211-2.326-9.291-4.705-9.291
		c-2.377,0-4.908,1.494-4.709,9.683C184.895,39.52,187.214,39.877,189.591,39.877 M210,30.717c0,11.242-9.98,17.315-20.605,17.315
		c-10.623,0-20.608-6.073-20.608-17.315c0-11.884,9.411-18.146,20.608-18.146C200.596,12.571,210,18.833,210,30.717"/>
	<path fill="#FFFFFF" d="M126.251,24.475c-0.571-2.203-2.487-5.46-6.492-4.148c-3.952,1.291-2.883,4.376-2.296,6.64L126.251,24.475z
		 M119.421,33.562c0.658,2.461,2.224,5.539,5.615,5.045c5.317-0.777,5.021-4.213,4.926-5.819l13.019-2.496
		c-0.057,8.366-7.91,14.207-15.418,16.11c-10.276,2.607-21.061-0.269-23.976-11.469c-2.804-10.773,3.808-19.631,14.208-22.267
		c11.63-2.955,22.743,2.191,25.137,14.747L119.421,33.562z"/>
	<path fill="#FFFFFF" d="M54.729,0c3.221,0,5.829,2.606,5.829,5.825c0,3.219-2.607,5.825-5.829,5.825
		c-3.219,0-5.832-2.605-5.832-5.825C48.897,2.605,51.51,0,54.729,0"/>
</g>
</svg>
