<?xml version="1.0" encoding="utf-8"?>
<!-- Generator: Adobe Illustrator 18.1.1, SVG Export Plug-In . SVG Version: 6.00 Build 0)  -->
<!DOCTYPE svg PUBLIC "-//W3C//DTD SVG 1.1//EN" "http://www.w3.org/Graphics/SVG/1.1/DTD/svg11.dtd">
<svg version="1.1" id="Layer_1" xmlns="http://www.w3.org/2000/svg" xmlns:xlink="http://www.w3.org/1999/xlink" x="0px" y="0px"
	 viewBox="0 0 768 768" enable-background="new 0 0 768 768" xml:space="preserve">
<g id="icomoon-ignore">
</g>
<g>
	<path fill="#3F832C" d="M384,0c51.2,0,102.4,10.2,148.5,30.7c48.6,20.5,87,48.6,122.9,81.9s61.4,74.2,81.9,122.9
		C757.8,284.2,768,332.8,768,384s-10.2,102.4-30.7,148.5c-20.5,48.6-48.6,87-81.9,122.9s-74.2,61.4-122.9,81.9
		C483.8,757.8,435.2,768,384,768s-102.4-10.2-148.5-30.7c-48.6-20.5-87-48.6-122.9-81.9s-61.4-74.2-81.9-122.9
		C10.2,483.8,0,435.2,0,384s10.2-102.4,30.7-148.5c20.5-48.6,48.6-87,81.9-122.9s74.2-61.4,122.9-81.9C281.6,10.2,332.8,0,384,0z
		 M384,69.1c-43.5,0-84.5,7.7-122.9,25.6c-38.4,15.4-71.7,38.4-99.8,66.6s-51.2,61.4-66.6,99.8S69.1,340.5,69.1,384
		s7.7,84.5,25.6,122.9c15.4,38.4,38.4,71.7,66.6,99.8s61.4,51.2,99.8,66.6c38.4,15.4,79.4,25.6,122.9,25.6s84.5-7.7,122.9-25.6
		c38.4-15.4,71.7-38.4,99.8-66.6s51.2-61.4,66.6-99.8c15.4-38.4,25.6-79.4,25.6-122.9s-7.7-84.5-25.6-122.9
		c-15.4-38.4-38.4-71.7-66.6-99.8s-61.4-51.2-99.8-66.6S427.5,69.1,384,69.1z M384,209.9c10.2,0,17.9,2.6,25.6,10.2
		s10.2,15.4,10.2,25.6v105h105c10.2,0,17.9,2.6,25.6,10.2s10.2,15.4,10.2,25.6c0,10.2-2.6,17.9-10.2,25.6s-15.4,10.2-25.6,10.2h-105
		v105c0,10.2-2.6,17.9-10.2,25.6s-15.4,10.2-25.6,10.2s-17.9-2.6-25.6-10.2s-10.2-15.4-10.2-25.6v-105h-105
		c-10.2,0-17.9-2.6-25.6-10.2s-10.2-15.4-10.2-25.6c0-10.2,2.6-17.9,10.2-25.6s15.4-10.2,25.6-10.2h105v-105
		c0-10.2,2.6-17.9,10.2-25.6C366.1,212.5,373.8,209.9,384,209.9z"/>
</g>
</svg>
